<svg width="412" height="75" viewBox="0 0 412 75" fill="none" xmlns="http://www.w3.org/2000/svg">
<path d="M133.2 74.5918L189.8 37.4978L133.2 0.887695L174 37.4978L133.2 74.5918Z" fill="url(#paint0_linear_504_37)"/>
<path d="M0 17.1768L54.6 71.2856L108.4 17.1768L54.6 56.1254L0 17.1768Z" fill="#BE4E95"/>
<path d="M49.8 17.1768L104.4 71.2856L158.1 17.1768L104.4 56.1254L49.8 17.1768Z" fill="#BE4E95"/>
<path d="M180.9 5.48414C176.5 10.5644 177.3 17.0962 182.6 20.1605C187.9 23.1441 195.8 21.4507 200.2 16.3704C204.6 11.2902 203.8 4.75839 198.5 1.6941C193.2 -1.28954 185.3 0.403878 180.9 5.48414Z" fill="#BE4E95"/>
<path d="M235.3 48.2023C237.2 49.0087 238.6 50.057 239.7 51.5085C240.7 52.96 241.2 54.6534 241.2 56.5887C241.2 58.5241 240.7 60.2175 239.7 61.5883C238.7 63.0398 237.2 64.0882 235.3 64.8139C233.4 65.5397 231.2 65.9429 228.7 65.9429H221V46.9927H228.7C231.2 47.0733 233.4 47.4765 235.3 48.2023ZM235 61.669C236.5 60.4594 237.2 58.766 237.2 56.5887C237.2 54.4115 236.5 52.6374 235 51.4278C233.5 50.2182 231.4 49.5731 228.7 49.5731H224.9V63.443H228.7C231.4 63.5237 233.5 62.8786 235 61.669Z" fill="#BE4E95"/>
<path d="M244.5 54.4116C245.3 53.2826 246.3 52.3149 247.7 51.6698C249 51.0247 250.5 50.7021 252.2 50.7021C253.7 50.7021 254.9 50.9441 256 51.4279C257.1 51.9117 258 52.4762 258.6 53.1213V50.9441H262.5V66.0236H258.6V63.7657C257.9 64.4914 257.1 65.0559 255.9 65.5398C254.8 66.0236 253.5 66.2655 252 66.2655C250.4 66.2655 248.9 65.9429 247.6 65.2978C246.3 64.6527 245.2 63.685 244.4 62.4755C243.6 61.2659 243.2 59.895 243.2 58.4435C243.4 56.9114 243.8 55.6211 244.5 54.4116ZM257.8 55.7824C257.3 55.0567 256.6 54.4116 255.7 54.0084C254.8 53.6052 253.9 53.4439 252.9 53.4439C251.9 53.4439 251 53.6052 250.1 54.0084C249.2 54.4116 248.5 54.976 248 55.7018C247.5 56.4275 247.2 57.3146 247.2 58.3629C247.2 59.4112 247.5 60.2982 248 61.1046C248.5 61.911 249.2 62.4755 250.1 62.8787C251 63.2819 251.9 63.5238 252.9 63.5238C253.9 63.5238 254.8 63.3625 255.7 62.9593C256.6 62.5561 257.3 61.9916 257.8 61.1852C258.3 60.3788 258.6 59.4918 258.6 58.4435C258.6 57.3952 258.4 56.5888 257.8 55.7824Z" fill="#BE4E95"/>
<path d="M280.6 51.5085C281.8 51.9924 282.7 52.7181 283.3 53.6858C284 54.6535 284.3 55.7824 284.3 57.1533V66.0236H280.5V57.6371C280.5 56.2663 280.1 55.2179 279.2 54.5728C278.4 53.8471 277.2 53.5245 275.8 53.5245C274.4 53.5245 273.2 53.8471 272.4 54.5728C271.6 55.2986 271.1 56.3469 271.1 57.6371V66.0236H267.2V50.9441H271.1V52.6375C271.7 51.9924 272.5 51.5085 273.5 51.186C274.5 50.8634 275.5 50.7021 276.6 50.7021C278.2 50.7021 279.5 50.9441 280.6 51.5085Z" fill="#BE4E95"/>
<path d="M288.8 54.4116C289.6 53.202 290.7 52.3149 292 51.6698C293.4 51.0247 295 50.7021 296.7 50.7021C299 50.7021 300.8 51.1053 302.3 51.9924C303.8 52.8794 304.8 54.089 305.3 55.7018H301.1C300.8 54.976 300.2 54.4115 299.5 53.9277C298.8 53.5245 297.8 53.2826 296.7 53.2826C295.1 53.2826 293.9 53.7664 292.9 54.6535C292 55.5405 291.5 56.8307 291.5 58.4435C291.5 60.0563 292 61.3465 292.9 62.2335C293.8 63.1206 295.1 63.6044 296.7 63.6044C298.9 63.6044 300.4 62.798 301.1 61.2659H305.3C304.8 62.798 303.7 64.0076 302.3 64.8946C300.8 65.7817 299 66.2655 296.7 66.2655C294.9 66.2655 293.3 65.9429 292 65.2978C290.6 64.6527 289.5 63.7657 288.8 62.5561C288 61.3465 287.6 60.0563 287.6 58.4435C287.6 56.9114 288 55.6211 288.8 54.4116Z" fill="#BE4E95"/>
<path d="M325.8 59.6532H311.5C311.6 60.8627 312.2 61.8304 313.2 62.5562C314.2 63.2819 315.4 63.6851 316.9 63.6851C319 63.6851 320.4 62.9594 321.3 61.5885H325.5C324.9 62.9594 323.9 64.0883 322.4 64.9753C320.9 65.8624 319.1 66.2656 316.9 66.2656C315.1 66.2656 313.5 65.943 312.1 65.2979C310.7 64.6528 309.6 63.7657 308.8 62.5562C308 61.3466 307.6 60.0564 307.6 58.4436C307.6 56.9114 308 55.5406 308.8 54.331C309.6 53.1214 310.7 52.2344 312.1 51.5892C313.5 50.9441 315.1 50.6216 317 50.6216C318.8 50.6216 320.3 50.9441 321.7 51.5892C323.1 52.2344 324.1 53.0408 324.9 54.1697C325.7 55.2986 326.1 56.5889 326.1 58.0404C326 58.6855 325.9 59.25 325.8 59.6532ZM322 57.1533C322 56.0244 321.5 55.0567 320.5 54.4116C319.5 53.6859 318.3 53.3633 316.8 53.3633C315.5 53.3633 314.3 53.6859 313.4 54.4116C312.5 55.0567 311.9 56.0244 311.7 57.1533H322Z" fill="#BE4E95"/>
<path d="M252.6 18.4463L245.4 38.1222H240.9L235.8 23.204L230.4 38.1222H225.9L219 18.4463H223.2L228.3 34.4935L233.8 18.4463H238.3L243.4 34.4128L248.5 18.4463H252.6Z" fill="white"/>
<path d="M259 37.3968C257.5 36.7517 256.4 35.784 255.5 34.5744C254.7 33.3649 254.2 31.9134 254.2 30.3812C254.2 28.7684 254.6 27.3976 255.5 26.188C256.4 24.9784 257.5 24.0107 259 23.3656C260.5 22.7205 262.2 22.3979 264 22.3979C265.8 22.3979 267.5 22.7205 269 23.3656C270.5 24.0107 271.7 24.9784 272.5 26.188C273.4 27.3976 273.8 28.8491 273.8 30.3812C273.8 31.994 273.4 33.3649 272.5 34.5744C271.6 35.784 270.4 36.7517 268.9 37.3968C267.4 38.0419 265.7 38.3645 263.8 38.3645C262.1 38.3645 260.4 38.0419 259 37.3968ZM266.8 34.9776C267.7 34.5744 268.4 34.01 269 33.2036C269.6 32.3972 269.8 31.4295 269.8 30.3006C269.8 29.1716 269.5 28.204 269 27.3976C268.5 26.5912 267.7 26.0267 266.9 25.6235C266 25.2203 265.1 25.059 264 25.059C263 25.059 262 25.2203 261.1 25.6235C260.2 26.0267 259.5 26.5912 259 27.3976C258.5 28.204 258.2 29.1716 258.2 30.3006C258.2 31.994 258.7 33.2842 259.8 34.1713C260.9 35.0583 262.2 35.5421 263.8 35.5421C264.9 35.5421 265.9 35.3808 266.8 34.9776Z" fill="white"/>
<path d="M283.9 22.9625C284.9 22.5593 286 22.3174 287.4 22.3174V25.6236H286.4C284.8 25.6236 283.6 25.9461 282.8 26.5913C282 27.2364 281.6 28.3653 281.6 29.8975V38.1227H277.6V22.5593H281.6V24.8172C282.1 24.0108 282.9 23.3657 283.9 22.9625Z" fill="white"/>
<path d="M294.7 17.1562V38.1224H290.7V17.1562H294.7Z" fill="white"/>
<path d="M299.5 26.1071C300.3 24.8975 301.4 23.9299 302.8 23.2847C304.2 22.6396 305.7 22.3171 307.4 22.3171C308.7 22.3171 309.9 22.559 311.1 22.9622C312.3 23.446 313.3 24.0105 314 24.7363V17.2368H318V38.203H314V35.8645C313.3 36.5902 312.4 37.2353 311.3 37.7192C310.1 38.203 308.8 38.4449 307.3 38.4449C305.6 38.4449 304.1 38.1223 302.7 37.3966C301.3 36.6708 300.2 35.7838 299.4 34.4936C298.6 33.284 298.2 31.8325 298.2 30.3003C298.2 28.6876 298.7 27.3167 299.5 26.1071ZM313.2 27.478C312.7 26.6716 311.9 26.1071 311 25.7039C310.1 25.3007 309.2 25.0588 308.1 25.0588C307 25.0588 306.1 25.3007 305.2 25.7039C304.3 26.1071 303.6 26.6716 303 27.478C302.5 28.2844 302.2 29.1714 302.2 30.3003C302.2 31.3487 302.5 32.3163 303 33.1227C303.5 33.9291 304.3 34.5742 305.2 34.9774C306.1 35.3806 307.1 35.6225 308.1 35.6225C309.1 35.6225 310.1 35.3806 311 34.9774C311.9 34.5742 312.6 33.9291 313.2 33.1227C313.7 32.3163 314 31.3487 314 30.3003C314.1 29.252 313.8 28.2844 313.2 27.478Z" fill="white"/>
<path d="M356.5 18.2852L350.1 38.1224H342.8L338.9 25.0588L334.8 38.1224H327.5L321.3 18.2852H327.7L331.2 32.7196L335.6 18.2852H342.2L346.4 32.7196L350 18.2852H356.5Z" fill="white"/>
<path d="M359.6 19.9786C358.9 19.4948 358.6 18.8497 358.6 18.1239C358.6 17.3982 358.9 16.753 359.6 16.2692C360.3 15.7854 361.1 15.5435 362.2 15.5435C363.2 15.5435 364.1 15.7854 364.7 16.2692C365.4 16.753 365.7 17.3982 365.7 18.1239C365.7 18.8497 365.4 19.4948 364.7 19.9786C364 20.4624 363.2 20.7044 362.2 20.7044C361.1 20.7044 360.2 20.4624 359.6 19.9786ZM365.1 22.3171V38.1224H359.1V22.3171H365.1Z" fill="white"/>
<path d="M369.1 25.9458C369.9 24.7363 370.9 23.7686 372.2 23.1235C373.5 22.4784 375 22.1558 376.6 22.1558C377.9 22.1558 379.1 22.3977 380.1 22.8009C381.2 23.2041 382 23.8492 382.6 24.575V17.2368H388.6V38.203H382.6V35.9451C382 36.6708 381.2 37.316 380.2 37.7192C379.2 38.203 377.9 38.3643 376.6 38.3643C375 38.3643 373.5 38.0417 372.2 37.3966C370.9 36.7515 369.9 35.7838 369.1 34.5742C368.3 33.3646 368 31.9131 368 30.3003C367.9 28.6069 368.3 27.1554 369.1 25.9458ZM381.4 27.3973C380.6 26.6716 379.6 26.349 378.4 26.349C377.2 26.349 376.2 26.6716 375.4 27.3973C374.6 28.1231 374.2 29.0101 374.2 30.2197C374.2 31.4293 374.6 32.397 375.4 33.1227C376.2 33.8485 377.2 34.171 378.4 34.171C379.6 34.171 380.6 33.8485 381.4 33.1227C382.2 32.397 382.6 31.5099 382.6 30.3003C382.6 29.0101 382.2 28.0425 381.4 27.3973Z" fill="white"/>
<path d="M411 31.4296H397.4C397.5 32.3973 397.9 33.123 398.6 33.6875C399.3 34.1713 400.1 34.4939 401.1 34.4939C402.6 34.4939 403.6 34.01 404.2 32.9617H410.6C410.3 34.01 409.7 34.8971 408.8 35.7841C407.9 36.5905 406.9 37.2356 405.6 37.7195C404.3 38.2033 402.9 38.4452 401.3 38.4452C399.4 38.4452 397.7 38.1226 396.2 37.4775C394.7 36.8324 393.5 35.8648 392.7 34.6552C391.9 33.4456 391.4 31.9941 391.4 30.3813C391.4 28.7685 391.8 27.317 392.6 26.1074C393.4 24.8978 394.6 23.9302 396.1 23.285C397.6 22.6399 399.3 22.3174 401.3 22.3174C403.2 22.3174 404.9 22.6399 406.4 23.285C407.9 23.9302 409 24.8172 409.9 26.0268C410.7 27.2364 411.1 28.6072 411.1 30.22C411.1 30.4619 411 30.8651 411 31.4296ZM404.9 28.6879C404.9 27.8815 404.5 27.2364 403.8 26.6719C403.1 26.1881 402.2 25.9461 401.2 25.9461C400.2 25.9461 399.3 26.1881 398.7 26.6719C398 27.1557 397.6 27.8008 397.4 28.6879H404.9Z" fill="white"/>
<defs>
<linearGradient id="paint0_linear_504_37" x1="161.499" y1="0.920757" x2="161.499" y2="74.6184" gradientUnits="userSpaceOnUse">
<stop stop-color="#DA4E00"/>
<stop offset="1" stop-color="#BE4E95"/>
</linearGradient>
</defs>
</svg>
